<svg width="60" height="85" viewBox="0 0 60 85" fill="none" xmlns="http://www.w3.org/2000/svg">
<circle cx="30" cy="30" r="30" fill="black"/>
<circle cx="30" cy="30" r="29.6774" stroke="white" stroke-opacity="0.08" stroke-width="0.645161"/>
<path fill-rule="evenodd" clip-rule="evenodd" d="M58.0646 30.0001C58.0646 44.6746 46.8019 56.7187 32.449 57.9593V35.4347L39.571 42.5567L43.0604 39.0673L35.9551 31.962H46.0033V27.0276H35.9595L43.0644 19.9228L39.575 16.4336L32.449 23.5594V12.7811H27.5146V23.5219L20.4266 16.4336L16.9374 19.9228L24.0424 27.0276H13.9946V31.962H24.0468L16.9414 39.0673L20.4306 42.5567L27.5146 35.4726V57.9562C13.1792 56.6984 1.93555 44.6623 1.93555 30.0001C1.93555 14.5005 14.5005 1.93555 30.0001 1.93555C45.4996 1.93555 58.0646 14.5005 58.0646 30.0001ZM30.0001 58.0646H29.9754H30.0252H30.0001Z" fill="white"/>
<path d="M10.5205 69.3032C8.57881 69.3032 6.09294 69.5072 6.09294 72.4025H2.5171C2.5171 67.8048 5.58254 66.0005 10.5205 66.0005C16.2081 66.0005 18.9999 67.8048 18.9999 73.2541V83.5394H15.0838V81.2232C14.4022 82.8917 12.8024 84.0498 9.0564 84.0498C4.76468 84.0498 1.56445 82.9255 1.56445 78.7025C1.56445 75.2968 4.25428 73.8665 9.0564 73.3561L15.0838 72.7437V72.6756C15.0838 69.5763 12.3939 69.3042 10.5205 69.3042V69.3032ZM9.63496 76.1146C7.4212 76.3524 5.65069 76.9663 5.65069 78.6343C5.65069 79.9282 6.6725 80.7118 9.60062 80.7118C13.4148 80.7118 14.9126 79.0776 15.0838 77.818V75.5699L9.63496 76.1146Z" fill="#12151E"/>
<path d="M40.3538 83.5373H35.5522L30.6825 77.8158L25.8465 83.5373H21.0449L28.2986 75.0235L21.0449 66.5103H25.8465L30.6825 72.2317L35.5522 66.5103H40.3538L33.1002 75.0235L40.3538 83.5373Z" fill="#12151E"/>
<path d="M49.6498 66C55.5757 66 58.2317 67.8735 58.2317 72.3H54.6559C54.6559 69.9843 52.6804 69.3037 48.9683 69.3037C45.7327 69.3037 45.1203 70.1892 45.1203 71.0399C45.1203 71.9941 46.5506 72.6746 50.3647 73.3561C55.2001 74.2078 58.4357 74.7177 58.4357 78.8393C58.4357 82.5853 55.7115 84.0493 50.5686 84.0493C44.405 84.0493 41.647 82.1758 41.647 77.7493H45.2223C45.2223 79.9631 47.5724 80.7128 51.0801 80.7128C53.9405 80.7128 55.03 79.9969 55.03 78.9413C55.03 77.4091 53.1227 77.3409 49.5468 76.7275C45.8352 76.149 41.7136 75.1615 41.7136 71.1081C41.7136 67.4984 44.4039 66 49.6488 66H49.6498Z" fill="#12151E"/>
</svg>
