<svg width="21" height="20" viewBox="0 0 21 20" fill="none" xmlns="http://www.w3.org/2000/svg">
<path fill-rule="evenodd" clip-rule="evenodd" d="M1.06079 4.5C1.06079 1.87479 1.08947 1 4.63167 1C8.17388 1 8.20255 1.87479 8.20255 4.5C8.20255 7.12521 8.21385 8 4.63167 8C1.04949 8 1.06079 7.12521 1.06079 4.5Z" stroke="#6E7076" stroke-width="1.51131" stroke-linecap="round" stroke-linejoin="round"/>
<path fill-rule="evenodd" clip-rule="evenodd" d="M12.2837 4.5C12.2837 1.87479 12.3124 1 15.8546 1C19.3968 1 19.4255 1.87479 19.4255 4.5C19.4255 7.12521 19.4368 8 15.8546 8C12.2724 8 12.2837 7.12521 12.2837 4.5Z" stroke="#6E7076" stroke-width="1.51131" stroke-linecap="round" stroke-linejoin="round"/>
<path fill-rule="evenodd" clip-rule="evenodd" d="M1.06079 15.5C1.06079 12.8748 1.08947 12 4.63167 12C8.17388 12 8.20255 12.8748 8.20255 15.5C8.20255 18.1252 8.21385 19 4.63167 19C1.04949 19 1.06079 18.1252 1.06079 15.5Z" stroke="#6E7076" stroke-width="1.51131" stroke-linecap="round" stroke-linejoin="round"/>
<path fill-rule="evenodd" clip-rule="evenodd" d="M12.2837 15.5C12.2837 12.8748 12.3124 12 15.8546 12C19.3968 12 19.4255 12.8748 19.4255 15.5C19.4255 18.1252 19.4368 19 15.8546 19C12.2724 19 12.2837 18.1252 12.2837 15.5Z" stroke="#6E7076" stroke-width="1.51131" stroke-linecap="round" stroke-linejoin="round"/>
</svg>
