<svg width="21" height="21" viewBox="0 0 21 21" fill="none" xmlns="http://www.w3.org/2000/svg">
<mask id="mask0_595_4021" style="mask-type:luminance" maskUnits="userSpaceOnUse" x="0" y="0" width="21" height="21">
<path fill-rule="evenodd" clip-rule="evenodd" d="M0.907715 0.908203H20.4216V20.4228H0.907715V0.908203Z" fill="white"/>
</mask>
<g mask="url(#mask0_595_4021)">
<path fill-rule="evenodd" clip-rule="evenodd" d="M5.54575 17.8635C6.07234 17.8635 6.56897 18.0633 7.09466 18.2748C10.315 19.7638 14.1237 19.0865 16.6051 16.6061C19.879 13.3303 19.879 8.00176 16.6051 4.72781C15.0199 3.14259 12.9117 2.27008 10.6673 2.27008C8.42203 2.27008 6.31294 3.14349 4.72863 4.72872C2.24638 7.20915 1.57089 11.0179 3.04626 14.2074C3.25871 14.7331 3.4639 15.2451 3.4639 15.7772C3.4639 16.3083 3.28141 16.843 3.1207 17.3152C2.98815 17.7038 2.7875 18.2903 2.91642 18.4192C3.04262 18.5499 3.63277 18.3438 4.02227 18.2104C4.48984 18.0506 5.02007 17.8672 5.54575 17.8635ZM10.6446 20.423C9.25731 20.423 7.86094 20.1297 6.55445 19.525C6.16949 19.3707 5.80905 19.2254 5.55029 19.2254C5.25249 19.2272 4.8521 19.3652 4.46533 19.4987C3.67181 19.7711 2.684 20.1106 1.95312 19.3825C1.22497 18.6534 1.5609 17.6683 1.83146 16.8757C1.96493 16.4853 2.10202 16.0822 2.10202 15.7772C2.10202 15.5266 1.98127 15.207 1.79605 14.7467C0.0955263 11.0741 0.881782 6.64805 3.76623 3.76542C5.60749 1.92325 8.05796 0.908203 10.6664 0.908203C13.2748 0.908203 15.7262 1.92235 17.5675 3.76451C21.3735 7.5705 21.3735 13.7625 17.5675 17.5685C15.7017 19.4352 13.1895 20.423 10.6446 20.423Z" fill="#12151E" fill-opacity="0.6"/>
</g>
</svg>
