<svg width="20" height="20" viewBox="0 0 20 20" fill="none" xmlns="http://www.w3.org/2000/svg">
<path d="M6.99659 10.1289V13.5134" stroke="#12151E" stroke-opacity="0.6" stroke-width="1.63" stroke-linecap="round" stroke-linejoin="round"/>
<path d="M8.72346 11.8213H5.27011" stroke="#12151E" stroke-opacity="0.6" stroke-width="1.63" stroke-linecap="round" stroke-linejoin="round"/>
<path d="M12.8871 10.232H12.7904" stroke="#12151E" stroke-opacity="0.6" stroke-width="1.63" stroke-linecap="round" stroke-linejoin="round"/>
<path d="M14.5261 13.4625H14.4293" stroke="#12151E" stroke-opacity="0.6" stroke-width="1.63" stroke-linecap="round" stroke-linejoin="round"/>
<path d="M6.29523 0.807617C6.29523 1.47683 6.84876 2.01933 7.53157 2.01933H8.48637C9.5398 2.02309 10.3931 2.85937 10.3979 3.89181V4.50189" stroke="#12151E" stroke-opacity="0.6" stroke-width="1.63" stroke-linecap="round" stroke-linejoin="round"/>
<path fill-rule="evenodd" clip-rule="evenodd" d="M13.8471 18.8488C11.1311 18.8948 8.465 18.8929 5.84386 18.8488C2.93447 18.8488 0.807495 16.7736 0.807495 13.9221V9.72008C0.807495 6.86866 2.93447 4.79345 5.84386 4.79345C8.47936 4.7484 11.1474 4.74933 13.8471 4.79345C16.7565 4.79345 18.8825 6.8696 18.8825 9.72008V13.9221C18.8825 16.7736 16.7565 18.8488 13.8471 18.8488Z" stroke="#12151E" stroke-opacity="0.6" stroke-width="1.63" stroke-linecap="round" stroke-linejoin="round"/>
</svg>
