<svg width="20" height="19" viewBox="0 0 20 19" fill="none" xmlns="http://www.w3.org/2000/svg">
<path fill-rule="evenodd" clip-rule="evenodd" d="M15.5148 3.96533C17.0492 3.96533 18.284 5.20918 18.284 6.74356V9.86679C16.0505 11.1742 13.0998 11.9641 9.88573 11.9641C6.67171 11.9641 3.73006 11.1742 1.49658 9.86679V6.73448C1.49658 5.2001 2.74043 3.96533 4.27481 3.96533H15.5148Z" stroke="#12151E" stroke-opacity="0.6" stroke-width="1.63" stroke-linecap="round" stroke-linejoin="round"/>
<path d="M13.0683 3.96135V3.62905C13.0683 2.5214 12.1695 1.62256 11.0618 1.62256H8.71939C7.61173 1.62256 6.71289 2.5214 6.71289 3.62905V3.96135" stroke="#12151E" stroke-opacity="0.6" stroke-width="1.63" stroke-linecap="round" stroke-linejoin="round"/>
<path d="M1.51904 13.1831L1.69064 15.4611C1.80685 16.9964 3.08611 18.183 4.62503 18.183H15.156C16.6949 18.183 17.9741 16.9964 18.0903 15.4611L18.2619 13.1831" stroke="#12151E" stroke-opacity="0.6" stroke-width="1.63" stroke-linecap="round" stroke-linejoin="round"/>
</svg>
