<svg width="20" height="18" viewBox="0 0 20 18" fill="none" xmlns="http://www.w3.org/2000/svg">
<path fill-rule="evenodd" clip-rule="evenodd" d="M15.213 16.537C16.9135 16.537 18.2926 15.1588 18.2935 13.4583V13.4565V11.0051C17.1704 11.0051 16.2607 10.0954 16.2598 8.97227C16.2598 7.85009 17.1695 6.93945 18.2926 6.93945H18.2935V4.48807C18.2953 2.78663 16.918 1.4066 15.2175 1.40479H15.2121H4.57854C2.8771 1.40479 1.49798 2.783 1.49707 4.48444V4.48535V7.01843C2.58112 6.9803 3.48995 7.8283 3.52808 8.91235C3.52899 8.93232 3.5299 8.9523 3.5299 8.97227C3.5308 10.0935 2.6238 11.0033 1.50252 11.0051H1.49707V13.4565C1.49616 15.157 2.87529 16.537 4.57582 16.537H4.57672H15.213Z" stroke="#12151E" stroke-opacity="0.6" stroke-width="1.63" stroke-linecap="round" stroke-linejoin="round"/>
<path fill-rule="evenodd" clip-rule="evenodd" d="M10.2321 6.22877L10.7913 7.36094C10.8458 7.47171 10.9511 7.54888 11.0737 7.56704L12.3239 7.74953C12.6335 7.79493 12.7561 8.17444 12.5327 8.39143L11.6284 9.27211C11.5395 9.35836 11.4995 9.48275 11.5195 9.60531L11.7329 10.8492C11.7855 11.1569 11.4632 11.3912 11.1872 11.2459L10.0695 10.6585C9.95969 10.6004 9.82895 10.6004 9.71909 10.6585L8.60235 11.2459C8.32544 11.3912 8.00313 11.1569 8.05579 10.8492L8.26915 9.60531C8.29003 9.48275 8.24917 9.35836 8.1602 9.27211L7.25682 8.39143C7.03347 8.17444 7.15604 7.79493 7.46473 7.74953L8.71494 7.56704C8.8375 7.54888 8.94373 7.47171 8.99821 7.36094L9.55657 6.22877C9.69458 5.94913 10.0941 5.94913 10.2321 6.22877Z" stroke="#12151E" stroke-opacity="0.6" stroke-width="1.63" stroke-linecap="round" stroke-linejoin="round"/>
</svg>
