<svg width="36" height="20" viewBox="0 0 36 20" fill="none" xmlns="http://www.w3.org/2000/svg">
<path fill-rule="evenodd" clip-rule="evenodd" d="M7.48201 13.3962C3.59581 13.3962 0 15.3837 0 17.8872C0 20.3907 3.57428 19.974 7.48153 19.974C11.3677 19.974 14.686 20.3896 14.686 17.8872C14.686 16.6576 13.8901 15.5522 12.617 14.7457C11.299 13.9107 9.46949 13.3962 7.48201 13.3962Z" fill="#F7F8F9"/>
<path fill-rule="evenodd" clip-rule="evenodd" d="M7.48201 9.82555C10.0323 9.82555 12.0993 7.62547 12.0993 4.91227C12.0993 2.19907 10.0323 0 7.48201 0C4.93173 0 2.86375 2.19907 2.86375 4.91227C2.85513 7.6163 4.90876 9.81639 7.44947 9.82555H7.48201Z" fill="#F7F8F9"/>
<path fill-rule="evenodd" clip-rule="evenodd" d="M18.1391 13.3962C14.2529 13.3962 10.657 15.3837 10.657 17.8872C10.657 20.3907 14.2313 19.974 18.1386 19.974C22.0248 19.974 25.343 20.3896 25.343 17.8872C25.343 16.6576 24.5472 15.5522 23.2741 14.7457C21.956 13.9107 20.1265 13.3962 18.1391 13.3962Z" fill="#F7F8F9"/>
<path fill-rule="evenodd" clip-rule="evenodd" d="M18.1391 9.82555C20.6893 9.82555 22.7564 7.62547 22.7564 4.91227C22.7564 2.19907 20.6893 0 18.1391 0C15.5888 0 13.5208 2.19907 13.5208 4.91227C13.5122 7.6163 15.5658 9.81639 18.1065 9.82555H18.1391Z" fill="#F7F8F9"/>
<path fill-rule="evenodd" clip-rule="evenodd" d="M28.7961 13.3962C24.9099 13.3962 21.3141 15.3837 21.3141 17.8872C21.3141 20.3907 24.8884 19.974 28.7956 19.974C32.6818 19.974 36.0001 20.3896 36.0001 17.8872C36.0001 16.6576 35.2042 15.5522 33.9311 14.7457C32.6131 13.9107 30.7836 13.3962 28.7961 13.3962Z" fill="#F7F8F9"/>
<path fill-rule="evenodd" clip-rule="evenodd" d="M28.7961 9.82555C31.3464 9.82555 33.4134 7.62547 33.4134 4.91227C33.4134 2.19907 31.3464 0 28.7961 0C26.2458 0 24.1778 2.19907 24.1778 4.91227C24.1692 7.6163 26.2228 9.81639 28.7636 9.82555H28.7961Z" fill="#F7F8F9"/>
</svg>
